<?xml version="1.0" encoding="utf-8"?>
<!-- Generator: Adobe Illustrator 22.0.1, SVG Export Plug-In . SVG Version: 6.00 Build 0)  -->
<svg version="1.1" id="图层_1" xmlns="http://www.w3.org/2000/svg" xmlns:xlink="http://www.w3.org/1999/xlink" x="0px" y="0px"
	 viewBox="0 0 40 40" style="enable-background:new 0 0 40 40;" xml:space="preserve">
<style type="text/css">
	.st0{fill:#98D5DD;}
</style>
<g>
	<path class="st0" d="M34.3,30.4h-1.7l-3.3-4.6c1.4-0.5,2.3-1.8,2.3-3.3c0-1.9-1.6-3.5-3.5-3.5c-1.9,0-3.5,1.6-3.5,3.5
		c0,1.5,1,2.8,2.3,3.3l-3.3,4.6H22c-0.9,0-1.5,0.7-1.5,1.5v2.5c0,0.9,0.7,1.5,1.5,1.5h12.3c0.9,0,1.5-0.7,1.5-1.5v-2.5
		C35.8,31.1,35.2,30.4,34.3,30.4z M25.9,22.4c0-1.2,1-2.2,2.2-2.2c1.2,0,2.2,1,2.2,2.2c0,1.2-1,2.2-2.2,2.2h0
		C26.9,24.6,25.9,23.6,25.9,22.4z M27.9,26.7l0.4,0l2.7,3.7h-5.7L27.9,26.7z M34.3,34.6H22c-0.1,0-0.2-0.1-0.2-0.2v-2.5
		c0-0.1,0.1-0.2,0.2-0.2h12.3c0.1,0,0.2,0.1,0.2,0.2l0,2.5C34.5,34.5,34.4,34.6,34.3,34.6z"/>
	<path class="st0" d="M6.3,18.1c0-6.5,5.3-11.8,11.9-11.8l1.4,0c6.1,0.6,10.5,5.6,10.5,11.8c0.9,0.4,1.6,1.1,2.1,2
		c0.1-0.7,0.1-1.3,0.1-2C32.4,10.3,26.1,4,18.3,4C10.5,4,4.2,10.3,4.2,18.1c0,7.6,6.6,14.1,14.1,14.1c0.3,0,0.5,0,0.8,0v-1.3
		c0-0.3,0.1-0.6,0.2-0.9c-0.3,0-0.7,0-1,0C11.7,30,6.3,24.7,6.3,18.1z"/>
	<path class="st0" d="M10.7,18.1l7.5,7.5l5.9-5.8l1.3-1.3l0.3-0.3l-7.5-7.5L10.7,18.1z M18.3,22.8l-4.7-4.7l4.7-4.7l4.7,4.7
		L18.3,22.8z"/>
</g>
</svg>
