<?xml version="1.0" encoding="utf-8"?>
<!-- Generator: Adobe Illustrator 22.0.1, SVG Export Plug-In . SVG Version: 6.00 Build 0)  -->
<svg version="1.1" id="图层_1" xmlns="http://www.w3.org/2000/svg" xmlns:xlink="http://www.w3.org/1999/xlink" x="0px" y="0px"
	 viewBox="0 0 40 40" style="enable-background:new 0 0 40 40;" xml:space="preserve">
<style type="text/css">
	.st0{fill:#F4CA4F;}
</style>
<g>
	<path class="st0" d="M10.9,23.2h-0.6v-0.7c0-0.4-0.3-0.6-0.6-0.6c-0.4,0-0.6,0.3-0.6,0.6v0.7H8.3c-0.5,0-0.8,0.4-0.8,0.8v2.2
		c0,0.4,0.4,0.8,0.8,0.8h2.5c0.5,0,0.8-0.4,0.8-0.8V24C11.7,23.5,11.3,23.2,10.9,23.2z"/>
	<path class="st0" d="M16.3,22.4h-0.8v-0.5c0-0.4-0.3-0.6-0.6-0.6s-0.6,0.3-0.6,0.6v0.5h-0.8c-0.4,0-0.6,0.3-0.6,0.6v3.1
		c0,0.4,0.3,0.6,0.6,0.6h0.8V28c0,0.4,0.3,0.6,0.6,0.6s0.6-0.3,0.6-0.6v-1.2h0.8c0.4,0,0.6-0.3,0.6-0.6v-3.1
		C17,22.7,16.7,22.4,16.3,22.4z M15.7,25.6H14v-1.8h1.6V25.6z"/>
	<path class="st0" d="M31.9,13H31V12c0-0.4-0.3-0.6-0.6-0.6c-0.4,0-0.6,0.3-0.6,0.6V13h-0.8c-0.4,0-0.6,0.3-0.6,0.6v9.6
		c0,0.4,0.3,0.6,0.6,0.6h0.8V25c0,0.4,0.3,0.6,0.6,0.6c0.4,0,0.6-0.3,0.6-0.6v-1.1h0.8c0.4,0,0.6-0.3,0.6-0.6v-9.6
		C32.5,13.3,32.2,13,31.9,13z M31.2,22.7h-1.6v-8.4h1.6V22.7z"/>
	<path class="st0" d="M21.5,19.5h-0.8v-1.3c0-0.4-0.3-0.6-0.6-0.6c-0.4,0-0.6,0.3-0.6,0.6v1.3h-0.8c-0.4,0-0.6,0.3-0.6,0.6v3.1
		c0,0.4,0.3,0.6,0.6,0.6h2.9c0.4,0,0.6-0.3,0.6-0.6v-3.1C22.2,19.8,21.9,19.5,21.5,19.5z M20.9,22.7h-1.6v-1.8h1.6V22.7z"/>
	<path class="st0" d="M26.7,15.2h-2.9c-0.4,0-0.6,0.3-0.6,0.6v5.4c0,0.4,0.3,0.6,0.6,0.6h0.8v1.2c0,0.4,0.3,0.6,0.6,0.6
		s0.6-0.3,0.6-0.6v-1.2h0.8c0.4,0,0.6-0.3,0.6-0.6v-5.4C27.4,15.5,27.1,15.2,26.7,15.2z"/>
</g>
</svg>
