<?xml version="1.0" encoding="utf-8"?>
<!-- Generator: Adobe Illustrator 22.0.1, SVG Export Plug-In . SVG Version: 6.00 Build 0)  -->
<svg version="1.1" id="图层_1" xmlns="http://www.w3.org/2000/svg" xmlns:xlink="http://www.w3.org/1999/xlink" x="0px" y="0px"
	 viewBox="0 0 40 40" style="enable-background:new 0 0 40 40;" xml:space="preserve">
<style type="text/css">
	.st0{fill:#F4CA4F;}
</style>
<g>
	<g>
		<path class="st0" d="M10.9,13.2c0.9-1.3,2.1-2.3,3.5-3.1c1.9-1.1,4.2-1.6,6.4-1.5c0,0,0,0,0,0c0.5,0,0.9-0.4,0.9-0.9
			c0-0.5-0.4-0.9-0.9-0.9c-2.6-0.1-5.2,0.5-7.4,1.8c-1.6,0.9-2.9,2.1-4,3.6c-1.1,1.4-1.8,3-2.3,4.7c-0.5,1.7-0.6,3.4-0.4,5.2
			c0.2,1.8,0.8,3.5,1.7,5c0.2,0.4,0.5,0.8,0.7,1.2L8.4,28c-0.2-0.1-0.5,0-0.7,0.1c-0.2,0.2-0.4,0.4-0.4,0.6l0,0.1
			c-0.1,0.5,0.2,1,0.8,1.1l3.9,0.7c0.1,0,0.1,0,0.2,0c0.4,0,0.8-0.3,0.9-0.8l0,0v-0.1c0.1-0.2,0-0.5-0.1-0.7
			c-0.1-0.2-0.4-0.4-0.6-0.4l-0.1,0c0,0,0,0,0,0c-0.8-0.8-1.5-1.6-2-2.6c0,0,0,0,0,0c-0.8-1.4-1.3-2.8-1.5-4.4
			c-0.2-1.5-0.1-3,0.3-4.5C9.3,15.8,10,14.4,10.9,13.2z"/>
		<path class="st0" d="M33.6,18.6c-0.2-1.8-0.8-3.5-1.7-5.1c-0.4-0.7-0.8-1.3-1.3-1.9l0.8,0.2c0.1,0,0.1,0,0.2,0
			c0.2,0,0.4-0.1,0.5-0.2c0.2-0.1,0.4-0.4,0.4-0.6l0,0V11c0.1-0.2,0-0.5-0.1-0.7c-0.1-0.2-0.4-0.4-0.6-0.4l-3.9-0.7
			c-0.5-0.1-1,0.2-1.1,0.8l0,0v0.1c-0.1,0.2,0,0.5,0.1,0.7c0.1,0.2,0.3,0.3,0.5,0.4c0,0,0.1,0.1,0.1,0.1c1.1,0.9,2,2,2.8,3.2
			c0.8,1.4,1.3,2.8,1.5,4.4c0.2,1.5,0.1,3-0.3,4.5c-0.4,1.5-1.1,2.8-2,4c-0.9,1.3-2.1,2.3-3.5,3.1l0,0c-1.2,0.7-2.5,1.2-3.8,1.4
			c-1.3,0.2-2.6,0.2-4,0c-0.2,0-0.5,0-0.7,0.1c-0.2,0.1-0.3,0.3-0.4,0.6c0,0.2,0,0.5,0.1,0.7c0.1,0.2,0.3,0.3,0.6,0.4
			c0.8,0.1,1.6,0.2,2.4,0.2c0.7,0,1.5-0.1,2.2-0.2c1.6-0.3,3.1-0.8,4.4-1.6c1.6-0.9,2.9-2.1,4-3.6c1.1-1.4,1.8-3,2.3-4.7
			C33.7,22,33.8,20.3,33.6,18.6z"/>
	</g>
	<g>
		<path class="st0" d="M13,16.3h2V25h-2V16.3z"/>
		<path class="st0" d="M16,18.7c0-1.7,1.1-2.5,2.6-2.5s2.6,0.8,2.6,2.5v0.8h-2v-1c0-0.3,0-0.8-0.6-0.8S18,18.2,18,18.5v4.3
			c0,0.2,0,0.8,0.6,0.8s0.6-0.6,0.6-0.8v-1.3h2v1.1c0,1.6-1,2.5-2.6,2.5s-2.6-1-2.6-2.5V18.7z"/>
		<path class="st0" d="M22.1,18.7c0-1.7,1.1-2.5,2.6-2.5s2.6,0.8,2.6,2.5v4c0,1.6-1,2.5-2.6,2.5s-2.6-1-2.6-2.5V18.7z M25.2,18.5
			c0-0.3,0-0.8-0.6-0.8s-0.6,0.5-0.6,0.8v4.3c0,0.2,0,0.8,0.6,0.8s0.6-0.6,0.6-0.8V18.5z"/>
	</g>
</g>
</svg>
