<?xml version="1.0" encoding="utf-8"?>
<!-- Generator: Adobe Illustrator 22.0.1, SVG Export Plug-In . SVG Version: 6.00 Build 0)  -->
<svg version="1.1" id="图层_1" xmlns="http://www.w3.org/2000/svg" xmlns:xlink="http://www.w3.org/1999/xlink" x="0px" y="0px"
	 viewBox="0 0 40 40" style="enable-background:new 0 0 40 40;" xml:space="preserve">
<style type="text/css">
	.st0{fill:#98D5DD;}
</style>
<g>
	<g>
		<path class="st0" d="M19.5,20.4v-1.8c0-0.2-0.1-0.2-0.2-0.2h-0.4c-0.2,0-0.2,0.1-0.2,0.2v2.1h0.7C19.4,20.6,19.5,20.5,19.5,20.4
			L19.5,20.4z M19.5,20.4"/>
		<path class="st0" d="M14.7,8l0.2,0.2c0,0,0,0,0,0l1.8,2.3h6.1l1.8-2.3c0,0,0,0,0,0L24.8,8l0-0.1c0-0.1,0-0.1,0-0.2
			c0-0.3-0.2-0.6-0.5-0.7l0,0c0,0-2.4-0.5-4.6-0.5c-2.1,0-4.6,0.5-4.6,0.5l0,0c-0.3,0.1-0.5,0.4-0.5,0.7C14.6,7.8,14.7,7.9,14.7,8
			L14.7,8z M14.7,8"/>
		<path class="st0" d="M32,24.3c0-5.1-4-10.5-8.9-12.2h-6.2C12,13.8,8,19.1,8,24.3c0,6.2,3.5,9.2,12,9.2C28.4,33.5,32,30.5,32,24.3
			L32,24.3z M16.6,18c-0.2,0.8-0.4,1.6-0.7,2.4v8.2c0,0.3-0.1,0.5-0.2,0.6c-0.1,0.1-0.3,0.2-0.6,0.2c-0.3,0-0.5-0.1-0.6-0.2
			c-0.2-0.1-0.2-0.3-0.2-0.6v-4.9c-0.1,0-0.2,0.1-0.4,0.1c-0.3,0-0.6-0.1-0.7-0.3c-0.2-0.2-0.3-0.4-0.3-0.6c0-0.2,0.1-0.4,0.2-0.6
			c0.8-1.4,1.5-3.1,2-5.1c0.1-0.3,0.3-0.5,0.6-0.5c0.3,0,0.5,0.1,0.7,0.2c0.2,0.1,0.3,0.3,0.3,0.6C16.7,17.6,16.7,17.8,16.6,18
			L16.6,18z M23.8,18.3H22c-0.3,0-0.4-0.2-0.4-0.7c0-0.6,0.2-0.8,0.6-0.8h2.5c0.7,0,1,0.4,1,1.1v2.9c0,0.6-0.4,0.9-1.1,0.9h-2.3
			c-0.4,0-0.7-0.3-0.7-0.8c0-0.5,0.1-0.8,0.4-0.8h1.9c0.1,0,0.1,0,0.1-0.1v-1.7C24,18.4,23.9,18.3,23.8,18.3L23.8,18.3z M18.6,27.2
			v1.7c0,0.3-0.1,0.4-0.3,0.6c-0.2,0.1-0.3,0.1-0.5,0.1c-0.3,0-0.5,0-0.6-0.1C17,29.3,17,29.1,17,28.8v-11c0-0.7,0.4-1,1.1-1h2.2
			c0.6,0,0.9,0.3,0.9,1V21c0,0.7-0.3,1-1,1h-1.5v1h1.7c0.3,0,0.5,0.1,0.6,0.2c0.1,0.1,0.2,0.3,0.2,0.6c0,0.3,0,0.4-0.1,0.6
			c-0.1,0.1-0.3,0.2-0.6,0.2h-1.7v1h1.7c0.3,0,0.5,0.1,0.6,0.2c0.1,0.1,0.2,0.3,0.2,0.6c0,0.3,0,0.4-0.1,0.6
			c-0.1,0.1-0.3,0.2-0.6,0.2L18.6,27.2L18.6,27.2z M25.8,29.1c-0.2,0.2-0.4,0.3-0.7,0.3c-0.3,0-0.5-0.1-0.7-0.2
			c-0.4-0.3-0.8-0.6-1.2-0.9c-0.3,0.2-0.6,0.4-0.9,0.6c-0.5,0.3-0.9,0.4-1.2,0.5c-0.3,0-0.5-0.1-0.7-0.2c-0.1-0.2-0.2-0.3-0.2-0.5
			c0-0.2,0.1-0.4,0.2-0.6c0.7-0.3,1.2-0.7,1.7-1c-0.3-0.5-0.6-1-0.9-1.7c0-0.1,0-0.2-0.1-0.3c0-0.2,0.1-0.4,0.3-0.5
			c0.2-0.1,0.4-0.1,0.5-0.1c0.3,0,0.4,0.2,0.5,0.4c0.3,0.5,0.5,0.9,0.8,1.2c0.6-0.7,0.9-1.3,0.9-1.9c0,0-0.1-0.1-0.2-0.1H22
			c-0.2,0-0.4-0.1-0.5-0.2c-0.1-0.1-0.2-0.3-0.2-0.6c0-0.2,0.1-0.4,0.2-0.6c0.1-0.1,0.3-0.2,0.5-0.2h2.5c0.4,0,0.7,0.1,1,0.3
			c0.2,0.2,0.3,0.5,0.3,1c0,0.8-0.2,1.6-0.7,2.5c-0.2,0.3-0.4,0.6-0.7,0.9c0.4,0.3,0.8,0.6,1.3,0.9c0.2,0.1,0.3,0.3,0.3,0.6
			C26,28.8,25.9,29,25.8,29.1L25.8,29.1z M25.8,29.1"/>
	</g>
</g>
</svg>
