<?xml version="1.0" encoding="utf-8"?>
<!-- Generator: Adobe Illustrator 22.0.1, SVG Export Plug-In . SVG Version: 6.00 Build 0)  -->
<svg version="1.1" id="图层_1" xmlns="http://www.w3.org/2000/svg" xmlns:xlink="http://www.w3.org/1999/xlink" x="0px" y="0px"
	 viewBox="0 0 40 40" style="enable-background:new 0 0 40 40;" xml:space="preserve">
<style type="text/css">
	.st0{fill:#98D5DD;}
</style>
<g>
	<path class="st0" d="M11.8,14.8V23h1.9v-3.3h1c1.7,0,2.1-1.3,2.1-2.5c0-2.1-0.9-2.5-2.9-2.5H11.8z M14.9,17.3c0,0.7-0.2,1-0.7,1
		h-0.5v-2h0.5C14.7,16.3,14.9,16.6,14.9,17.3z"/>
	<path class="st0" d="M22,17c0-1.4-0.8-2.1-2.2-2.1c-1.8,0-2.3,1.1-2.3,2.3v0.6h1.7V17c0-0.4,0.1-0.8,0.5-0.8c0.5,0,0.5,0.4,0.5,0.8
		c0,1.9-2.9,2.3-2.9,5.5V23h4.6v-1.5h-2.7C19.9,19.4,22,19.4,22,17z"/>
	<path class="st0" d="M22.6,14.8V23h1.9v-3.3h1c1.7,0,2.1-1.3,2.1-2.5c0-2.1-0.9-2.5-2.9-2.5H22.6z M25.7,17.3c0,0.7-0.2,1-0.7,1
		h-0.5v-2H25C25.5,16.3,25.7,16.6,25.7,17.3z"/>
	<path class="st0" d="M16.8,32.4C11,31.1,7,26.1,7,20.2c0-6.9,5.7-12.6,12.6-12.6c6.9,0,12.6,5.7,12.6,12.6c0,0.5,0.4,0.9,0.9,0.9
		s0.9-0.4,0.9-0.9c0-7.9-6.5-14.4-14.4-14.4S5.2,12.2,5.2,20.2c0,6.8,4.6,12.5,11.2,14c0.1,0,0.1,0,0.2,0c0.4,0,0.8-0.3,0.9-0.7
		C17.6,33,17.3,32.6,16.8,32.4z"/>
	<path class="st0" d="M34,22.2l-4.5,1c-0.8,0.2-0.9,0.7-0.3,1.2l0.9,0.7L27,29l-2.4-2c-0.2-0.2-0.6-0.3-0.9-0.3
		c-0.3,0-0.6,0.2-0.8,0.5l-2.4,3.2l-1.2-0.9c-0.5-0.4-1.2-0.3-1.6,0.2c-0.4,0.5-0.3,1.2,0.2,1.6l2.1,1.7c0.2,0.2,0.5,0.3,0.7,0.3
		c0,0,0.1,0,0.1,0c0.3,0,0.6-0.2,0.8-0.5l2.4-3.2l2.4,2c0.2,0.2,0.6,0.3,0.9,0.3c0.3,0,0.6-0.2,0.8-0.4l6.5-8.3
		C35.1,22.4,34.8,22,34,22.2z"/>
</g>
</svg>
